<?xml version="1.0" encoding="utf-8"?>
<!-- Svg Vector Icons : http://www.onlinewebfonts.com/icon -->
<!DOCTYPE svg PUBLIC "-//W3C//DTD SVG 1.1//EN" "http://www.w3.org/Graphics/SVG/1.1/DTD/svg11.dtd">
<svg version="1.1" xmlns="http://www.w3.org/2000/svg" xmlns:xlink="http://www.w3.org/1999/xlink" x="0px" y="0px" viewBox="0 0 1000 1000" enable-background="new 0 0 1000 1000" xml:space="preserve">
<metadata> Svg Vector Icons : http://www.onlinewebfonts.com/icon </metadata>
<g><path d="M990,546.6L767.7,141.4l0,0H232.3l0,0L10,546.6l0,0v312h980V546.6L990,546.6z M962.7,546.6h-92L768.8,328.7V192.9L962.7,546.6z M251.9,343h497.1l95.3,204.7h-208l-2.2,1.1c-4.4,2.2-9.9,5.4-16.4,8.7c-28.5,16.4-66.8,37.2-117.2,37.2c-62.4,0-134.6-44.9-135.8-45.9l-3.3-2.2H164.4L251.9,343z M256.4,164.4h489.4v154.4H256.4V164.4z M232.3,192.9v135.8l-93.1,217.9H38.5L232.3,192.9z M967,835.7H34v-265h321.9c15.3,8.7,82.1,48.2,144.5,48.2c55.8,0,99.6-24,129.2-40.5c4.4-2.2,8.7-5.4,13.2-6.6H968v263.9h-1V835.7z M359.4,692.2h280.3v39.5H359.4V692.2z"/></g>
</svg>